<svg width="18" height="12" viewBox="0 0 18 12" fill="none" xmlns="http://www.w3.org/2000/svg">
<path fill-rule="evenodd" clip-rule="evenodd" d="M1.05911 9.44411C1.18091 10.9105 1.87269 11.6461 3.38292 11.7192C5.28289 11.8069 12.6294 11.8507 14.3979 11.763C16.1663 11.6802 16.8581 10.9008 16.9799 9.18104C17.126 7.08133 17.1211 4.98163 16.975 2.88192C16.8581 1.22554 16.1419 0.446062 14.4417 0.343757C10.8025 0.129401 7.16337 0.129401 3.5242 0.348628C1.94089 0.446062 1.18578 1.21579 1.05424 2.74551C0.864245 4.97675 0.869116 7.21287 1.05911 9.44411ZM12.2851 6.11902C10.4274 5.10192 8.74611 4.18143 6.93439 3.18896V9.24937C7.67267 8.8517 8.39088 8.46442 9.10702 8.07826C10.2244 7.47573 11.3368 6.87591 12.5125 6.24353L12.2851 6.11902Z" fill="white"/>
</svg>
