<svg width="22" height="14" viewBox="0 0 22 14" fill="none" xmlns="http://www.w3.org/2000/svg">
<path d="M0.200073 7.49609C1.19737 5.53983 2.71611 3.8974 4.58846 2.75029C6.46081 1.60319 8.61386 0.996094 10.8097 0.996094C13.0055 0.996094 15.1585 1.60319 17.0309 2.75029C18.9032 3.8974 20.422 5.53983 21.4193 7.49609C20.422 9.45235 18.9032 11.0948 17.0309 12.2419C15.1585 13.389 13.0055 13.9961 10.8097 13.9961C8.61386 13.9961 6.46081 13.389 4.58846 12.2419C2.71611 11.0948 1.19737 9.45235 0.200073 7.49609ZM10.8097 11.8265C11.9582 11.8265 13.0596 11.3703 13.8718 10.5582C14.6839 9.74607 15.1401 8.6446 15.1401 7.49609C15.1401 6.34759 14.6839 5.24612 13.8718 4.43401C13.0596 3.62189 11.9582 3.16565 10.8097 3.16565C9.66116 3.16565 8.55969 3.62189 7.74758 4.43401C6.93546 5.24612 6.47922 6.34759 6.47922 7.49609C6.47922 8.6446 6.93546 9.74607 7.74758 10.5582C8.55969 11.3703 9.66116 11.8265 10.8097 11.8265ZM10.8097 9.66132C10.2354 9.66132 9.68468 9.4332 9.27862 9.02714C8.87256 8.62108 8.64444 8.07035 8.64444 7.49609C8.64444 6.92184 8.87256 6.37111 9.27862 5.96505C9.68468 5.55899 10.2354 5.33087 10.8097 5.33087C11.3839 5.33087 11.9346 5.55899 12.3407 5.96505C12.7468 6.37111 12.9749 6.92184 12.9749 7.49609C12.9749 8.07035 12.7468 8.62108 12.3407 9.02714C11.9346 9.4332 11.3839 9.66132 10.8097 9.66132Z" fill="#C1C1C1"/>
</svg>
