<svg width="16" height="15" viewBox="0 0 16 15" fill="none" xmlns="http://www.w3.org/2000/svg">
<path d="M1.57895 15H2.36842V4.73684H1.57895C1.16018 4.73684 0.758573 4.9032 0.462463 5.19931C0.166353 5.49542 0 5.89703 0 6.31579V13.4211C0 13.8398 0.166353 14.2414 0.462463 14.5375C0.758573 14.8336 1.16018 15 1.57895 15ZM14.2105 4.73684H8.68421L9.57 2.07789C9.64904 1.84059 9.67057 1.5879 9.63282 1.34065C9.59507 1.09339 9.49912 0.858643 9.35288 0.655733C9.20663 0.452823 9.01427 0.28756 8.79164 0.173555C8.56902 0.0595495 8.32249 6.48259e-05 8.07237 0H7.89474L3.94737 4.29316V15H12.6316L15.72 8.21369L15.7895 7.89474V6.31579C15.7895 5.89703 15.6231 5.49542 15.327 5.19931C15.0309 4.9032 14.6293 4.73684 14.2105 4.73684Z" fill="#BDCBD0"/>
</svg>
