<svg width="26" height="20" viewBox="0 0 26 20" fill="none" xmlns="http://www.w3.org/2000/svg">
<path d="M9.99921 1.81804C8.55046 1.81804 7.1964 2.06423 5.93703 2.55662C4.67766 3.049 3.67632 3.71656 2.93301 4.5593C2.18969 5.40204 1.81804 6.30632 1.81804 7.27215C1.81804 8.04861 2.06897 8.79665 2.57082 9.51629C3.07267 10.2359 3.77811 10.8609 4.68713 11.3911L6.06486 12.1865L5.56774 13.3796C5.88969 13.1902 6.18322 13.0056 6.44835 12.8257L7.07331 12.3854L7.82609 12.5274C8.56466 12.66 9.28904 12.7263 9.99921 12.7263C11.448 12.7263 12.802 12.4801 14.0614 11.9877C15.3208 11.4953 16.3221 10.8277 17.0654 9.98501C17.8087 9.14227 18.1804 8.23799 18.1804 7.27215C18.1804 6.30632 17.8087 5.40204 17.0654 4.5593C16.3221 3.71656 15.3208 3.049 14.0614 2.55662C12.802 2.06423 11.448 1.81804 9.99921 1.81804ZM9.99921 0C11.8078 0 13.4814 0.324311 15.0201 0.972935C16.5588 1.62156 17.7732 2.50454 18.6633 3.62187C19.5534 4.73921 19.9984 5.95597 19.9984 7.27215C19.9984 8.58834 19.5534 9.8051 18.6633 10.9224C17.7732 12.0398 16.5588 12.9227 15.0201 13.5714C13.4814 14.22 11.8078 14.5443 9.99921 14.5443C9.18488 14.5443 8.35161 14.4686 7.49941 14.3171C6.32526 15.1503 5.00907 15.7563 3.55086 16.1351C3.20997 16.2203 2.80281 16.2961 2.32936 16.3623H2.28675C2.18259 16.3623 2.08554 16.3245 1.99558 16.2487C1.90563 16.173 1.85118 16.0735 1.83224 15.9504C1.82277 15.922 1.81804 15.8913 1.81804 15.8581C1.81804 15.825 1.82041 15.7942 1.82514 15.7658C1.82987 15.7374 1.83934 15.709 1.85355 15.6806L1.88906 15.6096L1.93877 15.5314L1.99558 15.4604L2.0595 15.3894L2.11631 15.3255C2.16366 15.2687 2.27255 15.1503 2.44299 14.9704C2.61343 14.7905 2.73653 14.6508 2.81228 14.5514C2.88803 14.452 2.99456 14.3147 3.13186 14.1395C3.26915 13.9643 3.38752 13.7821 3.48694 13.5927C3.58636 13.4033 3.68342 13.195 3.77811 12.9677C2.60396 12.286 1.68074 11.448 1.00844 10.4537C0.336148 9.45948 0 8.39896 0 7.27215C0 5.95597 0.445041 4.73921 1.33512 3.62187C2.2252 2.50454 3.4396 1.62156 4.9783 0.972935C6.517 0.324311 8.19064 0 9.99921 0ZM21.6744 16.6038C21.7691 16.8311 21.8662 17.0394 21.9656 17.2288C22.065 17.4181 22.1834 17.6004 22.3207 17.7756C22.458 17.9508 22.5645 18.0881 22.6403 18.1875C22.716 18.2869 22.8391 18.4266 23.0095 18.6065C23.18 18.7864 23.2889 18.9048 23.3362 18.9616C23.3457 18.971 23.3646 18.9923 23.393 19.0255C23.4214 19.0586 23.4428 19.0823 23.457 19.0965C23.4712 19.1107 23.4901 19.1344 23.5138 19.1675C23.5374 19.2007 23.554 19.2267 23.5635 19.2456L23.599 19.3167L23.6274 19.4019L23.6345 19.4942L23.6203 19.5865C23.5919 19.7191 23.5303 19.8232 23.4356 19.899C23.341 19.9747 23.2368 20.0079 23.1232 19.9984C22.6497 19.9321 22.2426 19.8564 21.9017 19.7712C20.4435 19.3924 19.1273 18.7864 17.9531 17.9531C17.1009 18.1046 16.2677 18.1804 15.4533 18.1804C12.8872 18.1804 10.6526 17.5554 8.74931 16.3055C9.29851 16.3434 9.71514 16.3623 9.99921 16.3623C11.5237 16.3623 12.9867 16.1493 14.3881 15.7232C15.7895 15.2971 17.0394 14.6863 18.1378 13.8909C19.3214 13.0198 20.2304 12.0161 20.8648 10.8798C21.4993 9.74355 21.8165 8.54099 21.8165 7.27215C21.8165 6.54304 21.7076 5.8234 21.4898 5.11323C22.7113 5.78553 23.6771 6.62826 24.3873 7.64144C25.0975 8.65462 25.4525 9.74355 25.4525 10.9082C25.4525 12.0445 25.1164 13.1074 24.4441 14.0969C23.7718 15.0864 22.8486 15.922 21.6744 16.6038Z" fill="#C91E24"/>
</svg>
