<svg width="16" height="16" viewBox="0 0 16 16" fill="none" xmlns="http://www.w3.org/2000/svg">
<path fill-rule="evenodd" clip-rule="evenodd" d="M15.8666 9.40128V9.40075V9.40021C15.8648 8.9429 15.8629 8.48576 15.8629 8.02908C15.8629 7.62413 15.864 7.21918 15.8651 6.81413V6.81384V6.81354V6.81293C15.868 5.73215 15.8709 4.65066 15.8532 3.5666C15.8288 1.27202 14.723 0.146654 12.443 0.132039C9.46639 0.10768 6.49464 0.10768 3.51803 0.132039C1.3014 0.146654 0.151675 1.29151 0.137059 3.49839C0.117572 6.47501 0.122444 9.44675 0.137059 12.4234C0.151675 14.7033 1.28191 15.8433 3.557 15.8579C6.53362 15.8823 9.50536 15.8823 12.482 15.8579C14.7083 15.8433 15.824 14.7131 15.8581 12.4916C15.8749 11.4627 15.8708 10.4316 15.8666 9.40128ZM5.80773 11.6978C3.84443 10.4848 3.32803 8.64814 3.93212 6.3974C3.15752 6.38279 2.84086 6.38279 2.20754 6.39253C1.66678 6.3974 1.54498 6.57279 1.54986 7.07457C1.56155 7.94681 1.55977 8.81904 1.55799 9.69127C1.55607 10.6362 1.55414 11.5811 1.56934 12.526C1.58883 13.817 2.17343 14.4211 3.44495 14.4309C6.4849 14.4552 9.52485 14.4552 12.5648 14.4309C13.8558 14.4162 14.416 13.8316 14.4404 12.5358C14.4578 11.5682 14.4528 10.1107 14.4486 8.86333V8.86312V8.86294V8.86267V8.86238C14.4469 8.36418 14.4453 7.89952 14.4453 7.51303C14.4501 6.32433 13.8802 6.41202 13.8802 6.41202C13.8802 6.41202 13.2371 6.40715 12.0971 6.40715C12.6671 8.42891 12.1994 10.285 10.47 11.5224C8.99383 12.5796 7.35206 12.6527 5.80773 11.6978ZM8.0341 10.7721C6.56285 10.7916 5.27672 9.57857 5.23287 8.13167C5.18902 6.54836 6.42157 5.233 7.97077 5.21838C9.51998 5.20377 10.7915 6.49477 10.7817 8.06834C10.7671 9.51036 9.50536 10.7526 8.0341 10.7721ZM11.5518 2.07969C11.3858 2.2515 11.3858 2.5836 11.3858 3.22548C11.3858 3.96782 11.3858 4.31187 11.5574 4.47132C11.7056 4.60905 11.9818 4.60905 12.4966 4.60905C13.3357 4.60905 13.7174 4.60905 13.8911 4.41895C14.0361 4.26027 14.0361 3.96913 14.0361 3.43497C14.0387 2.59703 14.0399 2.21519 13.8503 2.04119C13.6916 1.89551 13.3992 1.89551 12.862 1.89551C12.0983 1.89551 11.7297 1.89551 11.5518 2.07969Z" fill="white"/>
</svg>
