<svg width="17" height="15" viewBox="0 0 17 15" fill="none" xmlns="http://www.w3.org/2000/svg">
<path d="M3.52875 1.2825L2.47125 0.2175C0 2.67225 0 4.45125 0 6.75H0.75L1.5 6.70275C1.5 4.50675 1.5 3.297 3.52875 1.2825ZM14.028 0.2175L12.972 1.2825C15 3.297 15 4.50675 15 6.75L16.5 6.70275C16.5 4.45125 16.5 2.67225 14.028 0.2175ZM8.25 15C8.71447 15.0006 9.16759 14.8564 9.54637 14.5876C9.92514 14.3188 10.2108 13.9386 10.3635 13.5H6.1365C6.28925 13.9386 6.57486 14.3188 6.95363 14.5876C7.33241 14.8564 7.78552 15.0006 8.25 15ZM13.5 9.4395V6C13.5 3.58725 11.8612 1.55475 9.64125 0.9435C9.4215 0.39 8.8845 0 8.25 0C7.6155 0 7.0785 0.39 6.85875 0.9435C4.638 1.55475 3 3.58725 3 6V9.4395L1.71975 10.7197C1.64997 10.7893 1.59463 10.8719 1.55691 10.9629C1.5192 11.0539 1.49986 11.1515 1.5 11.25V12C1.5 12.1989 1.57902 12.3897 1.71967 12.5303C1.86032 12.671 2.05109 12.75 2.25 12.75H14.25C14.4489 12.75 14.6397 12.671 14.7803 12.5303C14.921 12.3897 15 12.1989 15 12V11.25C15.0001 11.1515 14.9808 11.0539 14.9431 10.9629C14.9054 10.8719 14.85 10.7893 14.7802 10.7197L13.5 9.4395Z" fill="#9DADB2"/>
</svg>
