<svg width="8" height="16" viewBox="0 0 8 16" fill="none" xmlns="http://www.w3.org/2000/svg">
<path d="M5.11075 8.65779C4.90126 8.66266 4.88665 8.86727 4.88665 8.97445C4.88665 10.9085 4.88665 12.8377 4.88665 14.7718C4.88665 15.1128 4.88178 15.5513 4.55537 15.5513C3.50795 15.5513 4 15.5659 2.56284 15.5659C2.22182 15.5659 2.17798 15.5756 2.17798 15.2346C2.17798 13.1349 2.17798 11.0352 2.17798 8.93548C2.17798 8.61882 2.1731 8.61394 1.86131 8.61394C1.34004 8.61394 1.11107 8.61394 0.584926 8.61394C0.219548 8.61394 0.248778 8.57984 0.234163 8.27292C0.214676 7.82473 0.214676 6.55808 0.214676 6.18783C0.214676 6.04655 0.258522 5.99783 0.404673 5.99783C0.906459 6.00271 1.41312 5.99296 1.9149 6.00271C2.09516 6.00758 2.15362 5.95886 2.14875 5.77374C2.139 5.0576 2.12926 4.34145 2.15362 3.63018C2.22182 1.98354 3.12309 0.902025 4.73075 0.507416C5.39818 0.341778 6.07535 0.380751 6.75251 0.400238C7.03507 0.409981 7.2884 0.439212 7.60019 0.46357C7.73173 0.473314 7.75609 0.526903 7.75121 0.638952C7.73173 1.35509 7.71711 2.06636 7.70737 2.78251C7.70737 2.92379 7.64404 2.94814 7.51737 2.94814C6.91815 2.94814 6.3238 2.89943 5.72458 2.95789C5.22767 3.0066 4.98895 3.24045 4.94511 3.73736C4.88178 4.44376 4.93049 5.15016 4.91588 5.85656C4.91101 6.02707 5.02793 5.99783 5.12536 5.99783C5.91458 5.99783 6.69892 5.99783 7.48814 5.99783C7.7707 5.99783 7.78532 5.99784 7.75609 6.28527C7.68301 7.0209 7.55635 7.73216 7.43455 8.39959C7.39071 8.63343 7.31276 8.64805 7.11789 8.65292C6.28483 8.65292 5.91945 8.65292 5.11075 8.65779Z" fill="white"/>
</svg>
