<svg width="26" height="15" viewBox="0 0 26 15" fill="none" xmlns="http://www.w3.org/2000/svg">
<path fill-rule="evenodd" clip-rule="evenodd" d="M17.452 0.314703C17.5515 0.214947 17.6697 0.1358 17.7998 0.0817982C17.93 0.0277962 18.0695 0 18.2104 0C18.3513 0 18.4908 0.0277962 18.6209 0.0817982C18.7511 0.1358 18.8693 0.214947 18.9688 0.314703L25.396 6.74187C25.4957 6.84138 25.5749 6.95959 25.6289 7.08973C25.6829 7.21987 25.7107 7.35938 25.7107 7.50028C25.7107 7.64118 25.6829 7.78069 25.6289 7.91083C25.5749 8.04097 25.4957 8.15918 25.396 8.25869L18.9688 14.6859C18.7676 14.887 18.4948 15 18.2104 15C17.9259 15 17.6531 14.887 17.452 14.6859C17.2508 14.4847 17.1378 14.2119 17.1378 13.9275C17.1378 13.643 17.2508 13.3702 17.452 13.169L23.1229 7.50028L17.452 1.83152C17.3522 1.73201 17.2731 1.6138 17.2191 1.48366C17.1651 1.35352 17.1373 1.21401 17.1373 1.07311C17.1373 0.93221 17.1651 0.792695 17.2191 0.662555C17.2731 0.532416 17.3522 0.414208 17.452 0.314703Z" fill="white"/>
<path fill-rule="evenodd" clip-rule="evenodd" d="M6.10352e-05 7.50039C6.10352e-05 7.2163 0.112919 6.94383 0.313807 6.74295C0.514695 6.54206 0.787158 6.4292 1.07126 6.4292H23.5664C23.8505 6.4292 24.1229 6.54206 24.3238 6.74295C24.5247 6.94383 24.6376 7.2163 24.6376 7.50039C24.6376 7.78449 24.5247 8.05696 24.3238 8.25784C24.1229 8.45873 23.8505 8.57159 23.5664 8.57159H1.07126C0.787158 8.57159 0.514695 8.45873 0.313807 8.25784C0.112919 8.05696 6.10352e-05 7.78449 6.10352e-05 7.50039Z" fill="white"/>
</svg>
