<svg width="18" height="14" viewBox="0 0 18 14" fill="none" xmlns="http://www.w3.org/2000/svg">
<path d="M0.844706 12.2566C1.23931 12.2858 1.63392 12.2858 2.02853 12.2566C2.46211 12.2225 2.89082 12.1445 3.31466 12.0276C4.00645 11.8376 4.64951 11.5404 5.2536 11.1458C5.39976 11.0484 5.54591 10.9509 5.70667 10.8048C4.96617 10.7707 4.31336 10.5563 3.74337 10.1276C3.17338 9.70378 2.76903 9.1484 2.54006 8.44688C3.04185 8.53944 3.52415 8.51995 4.00157 8.39816C3.9967 8.3397 2.41827 7.87201 1.78982 6.72716C1.48777 6.21563 1.35136 5.65539 1.33675 5.06104C1.33188 4.97335 1.38547 5.02206 1.40982 5.03668C1.7411 5.21693 2.09674 5.32411 2.46699 5.38744C2.58878 5.40693 2.71057 5.40693 2.84698 5.41667C1.32213 4.15977 0.995729 2.65441 1.79956 0.86162C2.01392 1.09059 2.19904 1.30982 2.39878 1.51443C2.92005 2.05519 3.50466 2.52775 4.14285 2.9321C4.97105 3.45824 5.85283 3.85285 6.79794 4.10618C7.43126 4.27669 8.06945 4.38387 8.72713 4.42771C8.8538 4.43746 8.86354 4.38874 8.84893 4.28643C8.6297 2.99543 9.01457 1.90904 9.99378 1.05162C10.6807 0.452397 11.504 0.199068 12.4199 0.2624C13.2724 0.320861 13.9935 0.647265 14.5975 1.25136C14.6609 1.31469 14.7193 1.31956 14.8022 1.30007C15.455 1.15392 16.0785 0.929825 16.6632 0.598548C16.7021 0.57419 16.7508 0.559574 16.8288 0.520601C16.556 1.31956 16.0785 1.90904 15.4062 2.35724C16.0396 2.31339 16.6388 2.12827 17.2526 1.87981C17.1747 2.06493 17.0626 2.18185 16.9603 2.30852C16.5949 2.76159 16.1906 3.17081 15.718 3.51183C15.6304 3.57516 15.5962 3.64337 15.6011 3.75542C15.6303 4.69566 15.5183 5.61641 15.2747 6.52255C14.924 7.82817 14.3442 9.02174 13.5209 10.0984C12.9022 10.9071 12.1763 11.594 11.3335 12.164C10.6904 12.5976 9.99865 12.9483 9.26302 13.2017C8.58098 13.4404 7.88433 13.5963 7.16819 13.684C6.48615 13.7668 5.80411 13.7765 5.12694 13.7278C4.25978 13.6645 3.41697 13.4794 2.60339 13.1822C1.97981 12.9581 1.38547 12.6658 0.820347 12.3199C0.80086 12.3053 0.781373 12.2858 0.761887 12.2712C0.786245 12.2419 0.815475 12.2468 0.844706 12.2566Z" fill="white"/>
<path d="M0.854444 12.2466C0.825213 12.2466 0.795983 12.2515 0.761881 12.2515C0.752138 12.2515 0.732651 12.2515 0.727779 12.2466C0.718036 12.232 0.732651 12.2271 0.747266 12.2271C0.781368 12.2271 0.820342 12.2174 0.854444 12.2466Z" fill="#CDCDCD"/>
</svg>
