<svg width="32" height="32" viewBox="0 0 32 32" fill="none" xmlns="http://www.w3.org/2000/svg">
<path d="M9.57296 16.5669C9.2678 16.5669 9.01758 16.8171 9.01758 17.1223C9.01758 17.4274 9.2678 17.6777 9.57296 17.6777C9.87811 17.6777 10.1283 17.4274 10.1283 17.1223C10.1283 16.8171 9.87811 16.5669 9.57296 16.5669Z" fill="black"/>
<path d="M23.4941 27.5894C23.1035 27.4002 22.7862 27.095 22.5787 26.7166C22.2735 26.1185 21.8524 25.2458 21.4374 24.251C20.9797 24.5744 20.4914 24.8552 19.9788 25.0932C20.6989 26.0331 21.2665 26.8875 21.5656 27.3574C21.7792 27.6992 21.8768 28.102 21.8402 28.5048C21.8097 28.9809 22.0904 29.4203 22.5298 29.6034C22.9693 29.7865 23.4758 29.6644 23.7932 29.3043C24.1044 28.9442 24.1594 28.4255 23.9213 28.0166C23.8298 27.8335 23.6772 27.687 23.4941 27.5894Z" fill="black"/>
<path d="M8.81018 26.7591C8.62098 27.1131 8.32193 27.3999 7.95575 27.5708C7.52853 27.7844 7.28441 28.2483 7.35154 28.7182C7.41868 29.1881 7.77265 29.5726 8.24259 29.6642C8.71253 29.7557 9.18247 29.5421 9.42659 29.1332C9.53034 28.9562 9.58527 28.7487 9.57917 28.5473C9.54865 28.114 9.6524 27.6868 9.87822 27.3206C10.2444 26.7591 10.7876 25.9535 11.4406 25.0991C10.934 24.861 10.4458 24.5803 9.98197 24.2568C9.55475 25.2761 9.12143 26.161 8.81018 26.7591Z" fill="black"/>
<path d="M7.92519 4.42815C8.30968 4.61735 8.63315 4.9225 8.84065 5.30089C9.14581 5.89899 9.56692 6.77173 9.98193 7.76654C10.4458 7.44307 10.9279 7.16233 11.4406 6.92431C10.7631 6.03936 10.2138 5.22155 9.84766 4.66007C9.63405 4.3183 9.5364 3.91549 9.57302 3.51879C9.60354 3.04275 9.3228 2.60333 8.88337 2.42024C8.44395 2.23715 7.9374 2.35921 7.62004 2.71929C7.30268 3.07937 7.25385 3.59813 7.49187 4.01314C7.58952 4.18403 7.7421 4.3305 7.92519 4.42815Z" fill="black"/>
<path d="M22.6092 5.25173C22.7984 4.89776 23.1035 4.61091 23.4636 4.44003C23.8908 4.22642 24.135 3.76258 24.0678 3.29265C24.0007 2.82271 23.6467 2.43821 23.1768 2.34667C22.7068 2.25512 22.2369 2.46873 21.9928 2.87764C21.889 3.05463 21.8341 3.26213 21.8402 3.46353C21.8707 3.89685 21.767 4.32407 21.5411 4.69025C21.175 5.25173 20.6318 6.05734 19.9788 6.91177C20.4853 7.14979 20.9736 7.43053 21.4374 7.754C21.8646 6.73478 22.2979 5.84984 22.6092 5.25173Z" fill="black"/>
<path d="M14.0344 14.3333C14.958 14.3333 15.7067 13.5846 15.7067 12.661C15.7067 11.7375 14.958 10.9888 14.0344 10.9888C13.1109 10.9888 12.3622 11.7375 12.3622 12.661C12.3622 13.5846 13.1109 14.3333 14.0344 14.3333Z" fill="black"/>
<path d="M5.70364 16.8478C5.67923 16.5671 5.66702 16.2925 5.66702 16.0056C5.66702 15.7249 5.67923 15.4441 5.70364 15.1634C4.59898 15.3099 3.62249 15.377 2.95115 15.4075C2.54835 15.4197 2.15165 15.3038 1.82208 15.0718C1.35825 14.7545 0.729629 14.8277 0.357341 15.2488C-0.014947 15.6699 -0.014947 16.3047 0.357341 16.7258C0.717423 17.1347 1.32163 17.2323 1.79767 16.9516C2.15775 16.7136 2.57886 16.5854 3.01218 16.5976C3.67131 16.6403 4.6356 16.7075 5.70364 16.8478Z" fill="black"/>
<path d="M20.174 14.8886C20.4808 14.8886 20.7294 14.6399 20.7294 14.3332C20.7294 14.0265 20.4808 13.7778 20.174 13.7778C19.8673 13.7778 19.6187 14.0265 19.6187 14.3332C19.6187 14.6399 19.8673 14.8886 20.174 14.8886Z" fill="black"/>
<path d="M31.068 15.2855C30.7019 14.8766 30.1038 14.779 29.6277 15.0597C29.2676 15.3039 28.8465 15.4259 28.4132 15.4137C27.7419 15.3771 26.7776 15.31 25.7095 15.1696C25.7339 15.4503 25.7462 15.7311 25.7462 16.0118C25.7462 16.2926 25.7339 16.5733 25.7095 16.854C26.8874 16.7015 27.9127 16.6343 28.462 16.6099C28.8648 16.5977 29.2615 16.7137 29.5911 16.9456C30.0549 17.2629 30.6774 17.1836 31.0497 16.7625C31.4342 16.3353 31.4342 15.7067 31.068 15.2855Z" fill="black"/>
<path d="M28.8282 22.2917C28.6451 22.1819 28.4376 22.1331 28.224 22.1453C27.8029 22.1758 27.3757 22.072 27.0156 21.8462C26.1307 21.2725 25.2946 20.6805 24.5317 20.0824C24.1594 19.7895 24.019 19.289 24.1716 18.8435C24.788 17.0065 24.788 15.0169 24.1716 13.1737C24.019 12.7221 24.1594 12.2278 24.5317 11.9348C25.5265 11.1536 26.4541 10.5311 27.0522 10.1466C27.394 9.93301 27.8029 9.83536 28.2057 9.87198C28.4987 9.88418 28.7855 9.78654 29.0113 9.59124C29.347 9.29829 29.4691 8.82835 29.3287 8.40724C29.1883 7.98613 28.8099 7.68708 28.3644 7.64435C27.9189 7.60774 27.4978 7.83355 27.2842 8.22415C27.095 8.60864 26.7959 8.926 26.4175 9.1274C25.8438 9.42035 24.4462 10.0368 23.665 10.3724C23.2195 10.5616 22.7007 10.4457 22.3834 10.0795C21.1017 8.63305 19.3868 7.64435 17.5009 7.25376C17.0249 7.16221 16.6587 6.77161 16.6038 6.28947C16.5061 5.42283 16.3352 3.87265 16.3047 3.22572C16.2925 2.82902 16.4085 2.43843 16.6404 2.10886C16.9028 1.71216 16.8845 1.18729 16.5916 0.815006C16.3047 0.442718 15.8043 0.296244 15.3526 0.448821C14.901 0.601398 14.5959 1.02251 14.5959 1.49855C14.5959 1.70606 14.6508 1.90746 14.7606 2.08445C14.9987 2.43843 15.1268 2.85954 15.1146 3.29286C15.0841 3.93368 14.9132 5.44724 14.8156 6.29557C14.7606 6.77772 14.3945 7.16831 13.9184 7.25986C12.0265 7.64435 10.3115 8.63916 9.02984 10.0856C8.71248 10.4518 8.19372 10.5677 7.7482 10.3785C6.94869 10.0307 5.52668 9.40814 4.95299 9.10909C4.59901 8.9199 4.31216 8.62085 4.14128 8.25466C3.97039 7.9251 3.64693 7.69928 3.28074 7.65656C2.91456 7.60774 2.54227 7.74811 2.29815 8.02885C2.07844 8.27907 1.98079 8.62085 2.03571 8.95041C2.09064 9.27998 2.29204 9.56682 2.58499 9.73161C2.76808 9.83536 2.97559 9.89029 3.18309 9.87808C3.60421 9.84757 4.03142 9.95132 4.3915 10.1771C5.27645 10.7508 6.11257 11.3428 6.87546 11.9409C7.24774 12.2339 7.38812 12.7343 7.23554 13.186C6.61913 15.023 6.61913 17.0126 7.23554 18.8496C7.38812 19.2951 7.24774 19.7956 6.87546 20.0885C5.88065 20.8697 4.95299 21.4922 4.35488 21.8767C4.01311 22.0903 3.60421 22.1819 3.2014 22.1514C2.90845 22.1392 2.62161 22.2368 2.3958 22.4321C1.96858 22.8105 1.89534 23.4513 2.23101 23.9152C2.56668 24.379 3.1953 24.5194 3.68965 24.2325C3.87274 24.1288 4.01922 23.9762 4.11686 23.7931C4.30606 23.4086 4.60511 23.0913 4.9835 22.8899C5.55719 22.5969 6.9548 21.9805 7.73599 21.6448C7.87636 21.5838 8.02284 21.5533 8.17541 21.5533C8.49888 21.5533 8.80403 21.6936 9.01764 21.9378C10.2993 23.3842 12.0143 24.3729 13.9062 24.7635C14.3822 24.855 14.7484 25.2456 14.8034 25.7278C14.901 26.5883 15.0719 28.1385 15.1024 28.7854C15.1146 29.1821 14.9987 29.5788 14.7667 29.9084C14.5043 30.3051 14.5226 30.83 14.8156 31.2022C15.1085 31.5806 15.6029 31.7332 16.0606 31.5806C16.5122 31.4281 16.8174 31.0069 16.8174 30.5248C16.8174 30.3173 16.7624 30.1098 16.6526 29.9389C16.4146 29.5849 16.2864 29.1638 16.3047 28.7366C16.3474 27.9188 16.439 26.6555 16.6526 25.3128C16.6831 25.0686 16.8723 24.8734 17.1164 24.8306C19.1549 24.5072 21.0163 23.488 22.3834 21.9378C22.7007 21.5716 23.2195 21.4556 23.665 21.6448C24.4645 21.9927 25.8927 22.6213 26.4602 22.9143C26.8142 23.1035 27.1011 23.4025 27.2659 23.7687C27.4367 24.0983 27.7602 24.3241 28.1264 24.3729C28.4926 24.4217 28.8649 24.2814 29.109 24.0006C29.3287 23.7504 29.4263 23.4086 29.3714 23.079C29.3226 22.7434 29.1212 22.4565 28.8282 22.2917ZM9.57302 18.7947C8.65145 18.7947 7.90077 18.044 7.90077 17.1224C7.90077 16.2009 8.65145 15.4502 9.57302 15.4502C10.4946 15.4502 11.2453 16.2009 11.2453 17.1224C11.2453 18.0501 10.4946 18.7947 9.57302 18.7947ZM11.2453 12.6611C11.2453 11.1231 12.4964 9.87198 14.0344 9.87198C15.5723 9.87198 16.8235 11.1231 16.8235 12.6611C16.8235 14.1991 15.5723 15.4502 14.0344 15.4502C12.4964 15.4502 11.2453 14.1991 11.2453 12.6611ZM16.2681 23.2621C14.4189 23.2621 12.9175 21.7608 12.9175 19.9115C12.9175 18.0623 14.4189 16.561 16.2681 16.561C18.1173 16.561 19.6187 18.0623 19.6187 19.9115C19.6126 21.7608 18.1173 23.2621 16.2681 23.2621ZM20.1741 16.0056C19.2525 16.0056 18.5018 15.2549 18.5018 14.3333C18.5018 13.4118 19.2525 12.6611 20.1741 12.6611C21.0956 12.6611 21.8463 13.4118 21.8463 14.3333C21.8463 15.2549 21.0956 16.0056 20.1741 16.0056Z" fill="black"/>
<path d="M16.268 17.6841C15.0352 17.6841 14.0343 18.685 14.0343 19.9178C14.0343 21.1506 15.0352 22.1515 16.268 22.1515C17.5009 22.1515 18.5018 21.1506 18.5018 19.9178C18.5018 18.6789 17.5009 17.6841 16.268 17.6841Z" fill="black"/>
</svg>
