<svg width="24" height="32" viewBox="0 0 24 32" fill="none" xmlns="http://www.w3.org/2000/svg">
<g clip-path="url(#clip0)">
<path d="M3.38538 12.16C3.25113 12.16 3.14672 12.1448 3.1318 12.1448L3.07214 12.1295C2.86331 12.0838 1.04355 11.6571 0.566233 10.4686C0.0143372 9.09714 -0.41823 6.82667 0.655729 3.80952C1.58053 1.18857 4.08643 0 6.02553 0C6.78625 0 7.47239 0.167619 7.99445 0.502857C8.54634 0.838095 9.30707 1.38667 9.39656 2.27048C9.51589 3.26095 8.77009 4.22095 7.62155 5.36381C6.24927 6.72 6.20452 7.57333 6.12994 8.86857C6.11502 9.20381 6.08519 9.55429 6.05536 9.93524C5.87636 11.5657 4.56375 12.16 3.38538 12.16ZM23.3431 3.79429C22.4183 1.18857 19.9124 0 17.9733 0C17.2126 0 16.5265 0.167619 16.0044 0.502857C15.4525 0.838095 14.6918 1.38667 14.6023 2.27048C14.483 3.26095 15.2288 4.22095 16.3773 5.36381C17.7496 6.72 17.7943 7.57333 17.8689 8.86857C17.8838 9.20381 17.9137 9.55429 17.9435 9.93524C18.1225 11.581 19.45 12.16 20.6284 12.16C20.7626 12.16 20.867 12.1448 20.882 12.1448L20.9416 12.1295C21.1504 12.0838 22.9553 11.6419 23.4326 10.4686C23.9845 9.09714 24.4171 6.82667 23.3431 3.79429ZM17.3916 14.8267C15.9596 14.019 15.0796 13.4248 15.0796 12.1295C15.0796 9.18857 16.7204 8.39619 16.8099 8.35048C17.1082 8.21333 17.2424 7.86286 17.1231 7.5581C16.9889 7.25333 16.6458 7.10095 16.3475 7.2381C16.2431 7.28381 13.9012 8.33524 13.9012 12.1295C13.9012 14.2324 15.5271 15.1467 16.8248 15.8933C18.1821 16.6552 19.0025 17.1886 19.0025 18.3467C19.0025 19.7029 18.2567 20.6476 17.5109 21.2571C16.5861 19.4438 14.3785 18.7429 12.2754 18.7429C12.156 18.7429 12.0665 18.7429 12.0218 18.7429C11.977 18.7429 11.8876 18.7429 11.7682 18.7429C9.66505 18.7429 7.45747 19.4438 6.53267 21.2571C5.77195 20.6476 5.02615 19.7029 5.02615 18.3467C5.02615 17.1886 5.86145 16.6552 7.2039 15.8933C8.5016 15.1619 10.1275 14.2324 10.1275 12.1295C10.1275 8.33524 7.77071 7.26857 7.68121 7.2381C7.38289 7.10095 7.0249 7.25333 6.90557 7.5581C6.77133 7.86286 6.92049 8.22857 7.21881 8.35048C7.23373 8.35048 8.94908 9.12762 8.94908 12.1295C8.94908 13.4248 8.06903 14.0038 6.63708 14.8267C5.32447 15.5733 3.83286 16.4114 3.83286 18.3467C3.83286 20.4038 5.05598 21.7143 6.14485 22.4762C6.10011 22.72 6.08519 22.979 6.08519 23.2533C6.08519 27.1086 9.18774 29.0133 10.2915 29.5771V31.3905C10.2915 31.7257 10.56 32 10.8882 32H13.1554C13.4836 32 13.7521 31.7257 13.7521 31.3905V29.5771C14.8559 29.0286 17.9584 27.1086 17.9584 23.2533C17.9584 22.979 17.9435 22.72 17.8987 22.4762C18.9876 21.7143 20.2107 20.4038 20.2107 18.3467C20.1809 16.4114 18.7042 15.5733 17.3916 14.8267Z" fill="black"/>
</g>
<defs>
<clipPath id="clip0">
<rect width="24" height="32" fill="white"/>
</clipPath>
</defs>
</svg>
