<svg width="23" height="30" viewBox="0 0 23 30" fill="none" xmlns="http://www.w3.org/2000/svg">
<g clip-path="url(#clip0)">
<path d="M23 1.38727C23 1.34071 23 1.30347 22.9904 1.25692C22.9904 1.23829 22.9809 1.21036 22.9809 1.19174C22.9809 1.16381 22.9713 1.14518 22.9713 1.11725C22.9618 1.08932 22.9618 1.0707 22.9522 1.04276C22.9427 1.02414 22.9427 1.00552 22.9331 0.986897C22.9236 0.958964 22.914 0.940342 22.9044 0.92172C22.8949 0.903098 22.8949 0.884476 22.8853 0.865855C22.8758 0.847233 22.8662 0.8193 22.8567 0.800678C22.8471 0.782056 22.8376 0.763434 22.828 0.744812C22.8184 0.72619 22.7993 0.707568 22.7898 0.679635C22.7802 0.661013 22.7707 0.642391 22.7516 0.623769C22.7324 0.595836 22.7133 0.577214 22.7038 0.558592C22.6942 0.53997 22.6847 0.530659 22.6751 0.512037C22.6178 0.437549 22.5509 0.372372 22.4744 0.316506C22.4649 0.307195 22.4458 0.297884 22.4362 0.288573C22.4171 0.269951 22.3885 0.251329 22.3598 0.232707C22.3407 0.223396 22.3216 0.214085 22.3025 0.204774C22.2833 0.195463 22.2547 0.176841 22.2356 0.16753C22.2165 0.158219 22.1973 0.148908 22.1782 0.139598C22.1591 0.130287 22.1305 0.120976 22.1113 0.111665C22.0922 0.102354 22.0731 0.102354 22.054 0.0930426C22.0253 0.0837316 22.0062 0.0744206 21.9776 0.0651096C21.9585 0.0557986 21.9393 0.0557986 21.9202 0.0557986C21.8916 0.0464877 21.8629 0.0371767 21.8342 0.0371767C21.8151 0.0371767 21.796 0.0278657 21.7769 0.0278657C21.7482 0.0278657 21.7196 0.0185547 21.7005 0.0185547C21.6718 0.0185547 21.6431 0.0185547 21.6049 0.0185547C21.5858 0.0185547 21.5762 0.0185547 21.5571 0.0185547H17.0278C16.2347 0.0185547 15.5945 0.642391 15.5945 1.4152C15.5945 2.18801 16.2347 2.81185 17.0278 2.81185H18.0885L15.929 4.91613C14.2663 3.69639 12.1928 2.97014 9.94724 2.97014C4.47196 2.95152 0 7.30906 0 12.6629C0 17.5418 3.71708 21.5921 8.53303 22.2718V24.0875H6.76527C5.97217 24.0875 5.33195 24.7113 5.33195 25.4841C5.33195 26.2569 5.97217 26.8808 6.76527 26.8808H8.53303V28.6033C8.53303 29.3761 9.17325 29.9999 9.96635 29.9999C10.7595 29.9999 11.3997 29.3761 11.3997 28.6033V26.8808H13.1674C13.9605 26.8808 14.6007 26.2569 14.6007 25.4841C14.6007 24.7113 13.9605 24.0875 13.1674 24.0875H11.3997V22.2718C16.2156 21.5921 19.9327 17.5418 19.9327 12.6629C19.9327 10.4934 19.2065 8.50086 17.9643 6.88075L20.1334 4.76716V5.80068C20.1334 6.57349 20.7736 7.19733 21.5667 7.19733C22.3598 7.19733 23 6.57349 23 5.80068V1.38727C23 1.39658 23 1.39658 23 1.38727ZM9.96635 19.5809C6.04861 19.5809 2.86664 16.4804 2.86664 12.6629C2.86664 8.84537 6.04861 5.74481 9.96635 5.74481C13.8841 5.74481 17.0661 8.84537 17.0661 12.6629C17.0661 16.4804 13.8841 19.5809 9.96635 19.5809Z" fill="black"/>
</g>
<defs>
<clipPath id="clip0">
<rect width="23" height="30" fill="white"/>
</clipPath>
</defs>
</svg>
