<svg width="27" height="27" viewBox="0 0 27 27" fill="none" xmlns="http://www.w3.org/2000/svg">
<g clip-path="url(#clip0)">
<path d="M25.4021 6.3123L27 5.85352L26.5623 4.33477L24.9697 4.79355C24.7008 4.19766 24.3422 3.63867 23.8518 3.14824C23.3613 2.65781 22.8023 2.29922 22.2064 2.03027L22.6652 0.437695L21.1465 0L20.6877 1.59785C19.3746 1.41855 18.0141 1.69277 16.875 2.45215L15.7834 1.23398L14.6074 2.28867L15.6832 3.48574L13.384 5.78496L12.266 4.66699L11.148 5.78496L12.266 6.90293L9.99316 9.17578L8.8752 8.05781L7.75723 9.17578L8.8752 10.2937L7.07695 12.092C6.86074 12.3082 6.67617 12.5508 6.50215 12.7934L5.03086 12.034L4.30312 13.4367L5.74805 14.1855C3.06914 16.5006 2.31504 19.1848 1.93008 19.9072C1.69277 20.4557 1.32891 20.9514 0.880664 21.3363L1.90898 22.5387C2.5418 21.9955 3.05332 21.2994 3.38555 20.5295C3.83379 19.5961 4.21875 18.3199 5.52129 16.701C5.60566 17.3549 5.80605 17.9824 6.11719 18.5783C5.51602 19.5539 5.35254 20.0127 4.83574 21.1518C4.04473 23.0186 1.91953 24.4529 0 25.091L0.500977 26.5939C2.84766 25.8135 5.3209 24.0574 6.29648 21.7846C6.48633 21.3627 7.10859 20.1234 7.17188 20.0021C7.56211 20.3766 8.00508 20.6666 8.46387 20.9092C7.95762 22.043 7.9998 21.832 7.74668 22.4068C7.1877 23.7146 6.37559 24.8748 5.33672 25.8504L6.41777 27.0053C7.62012 25.8768 8.55352 24.5426 9.20215 23.0344C9.5291 22.2961 9.54492 22.3277 9.9668 21.4523C10.9107 21.6264 11.8863 21.542 12.7986 21.2256L13.5633 22.7021L14.966 21.9744L14.2066 20.5031C14.4492 20.3291 14.6918 20.1498 14.908 19.9283L16.7062 18.1301L17.8242 19.248L18.9422 18.1301L17.8242 17.0068L20.0971 14.734L21.215 15.852L22.333 14.734L21.215 13.616L23.5143 11.3168L24.7166 12.3926L25.7713 11.2166L24.5479 10.125C25.3072 8.98066 25.5814 7.62012 25.4021 6.3123ZM13.2363 10.7367V12.3188C12.44 12.3188 11.7914 12.9674 11.7914 13.7637H10.2094C10.2094 12.092 11.5646 10.7367 13.2363 10.7367ZM10.4414 18.4781V16.8961C11.2377 16.8961 11.8863 16.2475 11.8863 15.4512H13.4684C13.4684 17.1229 12.1131 18.4781 10.4414 18.4781ZM14.6918 9.28125C14.6918 7.60957 16.0523 6.2543 17.7188 6.2543V7.83633C16.9225 7.83633 16.2738 8.48496 16.2738 9.28125H14.6918ZM14.9766 14.1012V12.5191C15.7729 12.5191 16.4215 11.8705 16.4215 11.0742H18.0035C18.0035 12.7459 16.6482 14.1012 14.9766 14.1012ZM19.3535 9.51328V7.93125C20.1498 7.93125 20.7984 7.28262 20.7984 6.48633H22.3805C22.3805 8.15801 21.0252 9.51328 19.3535 9.51328Z" fill="black"/>
<path d="M2.15682 5.82725L0.922839 7.06123L2.04081 8.1792L3.27479 6.94522C3.53319 7.0665 3.80741 7.12979 4.0869 7.15615L4.54042 8.84893L6.06971 8.4376L5.61093 6.729C5.72694 6.6499 5.8535 6.60244 5.95897 6.49697C6.06444 6.3915 6.1119 6.26494 6.191 6.14893L7.8996 6.60772L8.31093 5.07842L6.61815 4.6249C6.59706 4.34541 6.5285 4.07119 6.40721 3.81279L7.63593 2.58408L6.51796 1.46611L5.28397 2.7001C5.02557 2.57881 4.75136 2.51553 4.47186 2.48916L4.01835 0.796387L2.48905 1.20771L2.94784 2.91631C2.83182 2.99541 2.70526 3.04287 2.59979 3.14834C2.49432 3.25381 2.45214 3.3751 2.37303 3.49111L0.664441 3.03232L0.253113 4.56162L1.94589 5.01514C1.96698 5.29463 2.03026 5.56885 2.15682 5.82725Z" fill="black"/>
<path d="M20.2711 21.3891L18.5625 20.9355L18.1512 22.4648L19.844 22.9184C19.8651 23.1979 19.9336 23.4721 20.0549 23.7305L18.8209 24.9645L19.9389 26.0824L21.1729 24.8484C21.4313 24.9697 21.7055 25.033 21.985 25.0594L22.4385 26.7521L23.9678 26.3408L23.509 24.6322C23.625 24.5531 23.7516 24.5057 23.857 24.4002C23.9625 24.2947 24.01 24.1682 24.0891 24.0521L25.7977 24.5109L26.209 22.9816L24.5162 22.5281C24.4951 22.2486 24.4266 21.9744 24.3053 21.716L25.5393 20.482L24.416 19.3641L23.182 20.598C22.9236 20.4768 22.6494 20.4135 22.3699 20.3871L21.9164 18.6943L20.3871 19.1057L20.8459 20.8143C20.7299 20.8934 20.6033 20.9408 20.4979 21.0463C20.3924 21.1518 20.3502 21.273 20.2711 21.3891Z" fill="black"/>
</g>
<defs>
<clipPath id="clip0">
<rect width="27" height="27" fill="white"/>
</clipPath>
</defs>
</svg>
